<svg xmlns="http://www.w3.org/2000/svg" width="512" height="512" viewBox="0 0 512 512" role="img" aria-label="Torq Orbit icon">
  <rect width="512" height="512" rx="112" fill="#1d9e75"/>
  <g fill="#ffffff">
    <!-- Fork -->
    <path d="M168 132c-8 0-14 6-14 14v52c0 18 12 33 28 38v124c0 9 7 16 16 16s16-7 16-16V236c16-5 28-20 28-38v-52c0-8-6-14-14-14s-14 6-14 14v50c0 5-4 9-9 9s-9-4-9-9v-50c0-8-6-14-14-14s-14 6-14 14v50c0 5-4 9-9 9s-9-4-9-9v-50c0-8-6-14-14-14z"/>
    <!-- Spoon -->
    <path d="M330 130c-26 0-44 30-44 70 0 31 14 53 34 61v99c0 9 7 16 16 16s16-7 16-16V261c20-8 34-30 34-61 0-40-18-70-44-70h-12z"/>
  </g>
</svg>
